<?xml version="1.0" encoding="UTF-8" standalone="no"?>
<!-- Created with Inkscape (http://www.inkscape.org/) -->

<svg
   xmlns:dc="http://purl.org/dc/elements/1.1/"
   xmlns:cc="http://creativecommons.org/ns#"
   xmlns:rdf="http://www.w3.org/1999/02/22-rdf-syntax-ns#"
   xmlns:svg="http://www.w3.org/2000/svg"
   xmlns="http://www.w3.org/2000/svg"
   version="1.1"
   width="500"
   height="500"
   id="svg3277">
  <defs
     id="defs3279" />
  <metadata
     id="metadata3282">
    <rdf:RDF>
      <cc:Work
         rdf:about="">
        <dc:format>image/svg+xml</dc:format>
        <dc:type
           rdf:resource="http://purl.org/dc/dcmitype/StillImage" />
        <dc:title></dc:title>
      </cc:Work>
    </rdf:RDF>
  </metadata>
  <g
     transform="translate(0,-552.36218)"
     id="layer1">
    <path
       d="m 63.850714,569.24331 c 0.824037,4.03923 1.384734,8.14126 2.472111,12.1177 1.404015,5.13435 3.353359,10.1039 4.989584,15.16903 1.831751,5.67042 3.749961,11.3154 5.414209,17.03721 9.895324,34.02091 -0.149548,2.56803 9.792828,37.38958 1.810812,6.34207 3.942209,12.58819 5.913314,18.88229 1.968948,6.32348 3.883949,12.66401 5.906845,18.97045 4.320725,13.46998 7.623805,22.07162 11.275485,35.77356 20.31347,76.22076 -11.914263,-39.31109 11.22381,45.9993 2.35257,8.67393 5.04471,17.25216 7.56707,25.87826 9.06912,24.8051 8.44425,24.9772 19.78913,48.6201 3.67106,7.6506 7.38188,15.2959 11.56942,22.6765 9.95981,17.5542 22.38819,33.57 34.30344,49.7984 1.44334,1.9789 13.76655,18.9845 15.93039,21.5599 10.22025,12.1644 2.755,2.2728 11.27205,10.6599 5.89345,5.8035 -0.0194,1.4033 3.96212,4.2209 0.2367,0.5121 0.53089,1.0014 0.7101,1.5363 0.0374,0.1116 -0.19911,-0.3189 -0.27111,-0.2259 -0.21652,0.2798 -0.29815,0.6556 -0.33375,1.0076 -0.0612,0.605 -0.0298,1.2204 0.0474,1.8236 0.21817,1.7035 0.70427,3.2665 1.155,4.9128 0.75701,2.3619 1.36293,4.7065 2.20834,7.0268 0,0 -31.19074,23.3428 -31.19074,23.3428 l 0,0 c 0.27876,-2.0413 -0.5756,-2.2097 -0.64113,-3.8479 -0.0213,-0.5335 0.3842,-1.0158 0.40697,-1.5493 0.0307,-0.7199 -0.16611,-1.4315 -0.24917,-2.1473 -0.29101,-0.8085 -0.59394,-1.6129 -0.87303,-2.4256 -0.23072,-0.6719 -0.34143,-1.3908 -0.65621,-2.0276 -0.61618,-1.2466 -1.45637,-1.8077 -1.91066,-3.0654 -0.13816,-0.3825 -0.50763,-0.9055 -0.22606,-1.1989 0.32361,-0.3373 0.93467,-0.018 1.402,-0.027 0.26319,-0.7072 0.73375,-1.3689 0.78957,-2.1214 0.10074,-1.3579 -0.091,-2.7311 -0.33014,-4.0715 -1.24796,-6.9946 -2.19993,-8.0648 -5.6757,-15.1962 -15.90112,-32.6249 5.31771,12.1037 -12.05887,-24.7847 -2.41524,-5.301 -4.74583,-10.6413 -7.24572,-15.9028 -10.14272,-21.3474 -8.86584,-17.4392 -19.9606,-39.7539 -8.91845,-17.9375 -14.01461,-28.4462 -21.39661,-47.1443 -3.25834,-8.2531 -6.10073,-16.6644 -9.15109,-24.9966 -3.07661,-8.2021 -6.07847,-16.4325 -9.22981,-24.60615 -4.87496,-12.64415 -11.849983,-29.09898 -16.27619,-42.12569 -5.689289,-16.74408 -5.430734,-19.42172 -10.412011,-36.41394 -1.858933,-6.34123 -3.97877,-12.60304 -5.968155,-18.90455 -20.154242,-60.81202 7.34115,22.69899 -11.799229,-37.20951 -3.645679,-11.41081 -7.060768,-22.35165 -12.95542,-32.85642 -5.781153,-10.3025 -8.547876,-12.37019 -16.038305,-20.21326 0,0 26.748504,-21.58753 26.748504,-21.58753 z"
       id="path3117"
       style="fill:#000000" />
    <path
       d="m 303.87481,592.65286 c -1.51155,2.38309 -3.12631,4.70377 -4.53465,7.14927 -1.63034,2.83099 -3.02756,5.79016 -4.57421,8.66773 -3.30128,6.14205 -11.09563,20.38462 -14.2739,25.67925 -27.25093,45.39681 -2.04389,0.83225 -27.1906,46.21057 -3.02666,6.23374 -6.10677,12.4418 -9.07998,18.7012 -6.20604,13.06539 -6.05849,14.30752 -13.20762,26.4551 -8.95183,15.21065 -6.87394,9.45546 -15.52449,25.13341 -2.34543,4.25077 -4.36325,8.67423 -6.54487,13.01135 -5.6811,14.21918 -3.6875,8.3673 -7.8348,21.75348 -2.48312,8.01467 -3.19229,9.91857 -4.93748,18.04947 -1.19648,5.5743 -2.51558,13.7272 -3.46179,19.3005 -1.37974,8.6312 -2.70386,17.2708 -4.76186,25.773 -0.60509,2.4998 -1.43806,4.9442 -1.9632,7.4619 -1.2665,6.0722 -1.19412,8.3925 -1.5716,14.5042 -0.34532,2.5606 -0.74409,5.1144 -1.03597,7.6816 -0.69205,6.0866 -0.48925,8.3935 -1.73749,14.3995 -1.5107,7.2688 -2.51081,8.4521 -4.46721,15.7309 -0.66602,2.478 -1.14666,5.0021 -1.71999,7.5031 -1.24954,7.4553 -4.26674,14.6135 -4.15555,22.2781 0.0643,4.4353 -0.25286,3.759 2.23084,5.0744 0,0 -30.0401,22.7654 -30.0401,22.7654 l 0,0 c 1.45594,-7.4147 -0.22951,1.4981 1.47433,-9.2338 1.22971,-7.7456 3.03259,-15.3625 4.66766,-23.0282 0.64019,-2.6048 1.25504,-5.216 1.92055,-7.8145 1.85818,-7.2553 4.06233,-14.4791 5.16563,-21.9074 0.36763,-2.4752 0.49017,-4.9808 0.77469,-7.467 0.28165,-2.4611 0.61582,-4.9159 0.92374,-7.3738 0.32934,-4.1058 0.77875,-11.3372 1.64008,-15.3398 0.55784,-2.5923 1.51881,-5.0812 2.28533,-7.6196 2.6444,-8.7574 5.42047,-17.5076 6.55259,-26.6293 0.64841,-4.7852 1.86587,-14.4979 2.89954,-19.2601 1.81401,-8.3572 3.15155,-11.4332 6.44924,-19.4544 4.33591,-10.5466 5.77493,-13.3276 10.71989,-24.00436 6.22689,-12.4248 6.80987,-14.31324 14.1828,-26.12136 2.64838,-4.24152 5.55057,-8.3193 8.29471,-12.4995 10.98846,-16.73887 22.02932,-33.47691 31.5874,-51.09371 3.6101,-7.26213 7.54512,-14.37162 10.8303,-21.7864 2.61688,-5.90641 4.49088,-12.11562 6.8541,-18.12802 1.63266,-4.15373 3.45068,-8.23237 5.13206,-12.36661 9.90624,-24.35779 -1.40727,3.21753 6.76983,-17.53641 0.77579,-1.96899 1.64356,-3.90049 2.46535,-5.85073 0,0 28.7967,-18.76843 28.7967,-18.76843 z"
       id="path3119"
       style="fill:#000000" />
    <path
       d="m 232.81217,598.84333 c 9.40817,25.56303 -6.0156,-15.90764 6.59003,16.15106 1.50614,3.83041 2.59424,7.81915 4.15615,11.62716 1.5745,3.83872 3.4849,7.53095 5.24325,11.28901 6.36065,13.59444 5.00836,10.67916 11.6893,24.36203 5.52551,11.08594 10.81111,22.29289 15.10307,33.92307 1.52794,4.14036 2.817,8.36566 4.31115,12.51834 3.10568,8.63158 6.44258,17.17821 9.6642,25.76719 5.99499,18.97984 11.87775,37.99056 18.05054,56.9146 1.52725,4.6821 3.24673,9.3033 4.6449,14.0255 1.3565,4.5815 2.40983,9.2474 3.61475,13.871 3.27637,12.8488 3.42178,14.811 7.97476,27.1941 9.46408,25.7401 0.52559,-1.4051 9.4633,24.3433 8.81104,25.3834 -0.82241,0.1492 8.65861,24.2865 1.6786,3.6297 3.42605,7.2284 5.03578,10.8892 3.96593,9.0192 5.69981,13.5526 8.82554,22.9439 4.48522,13.476 3.076,10.9926 7.94313,24.4528 1.48566,4.1086 3.1527,8.1493 4.72905,12.224 5.44168,12.4982 3.99998,9.2794 9.14526,20.7746 0.5532,1.236 3.63428,8.7968 5.36024,10.6749 2.45815,2.6749 1.6643,-0.9372 1.64129,-1.4688 -3.50342,-13.7912 0.006,-1.7751 -29.0498,23.79991 0,0 31.67076,-22.73751 31.67076,-22.73751 l 0,0 c -29.15747,27.44431 -16.66601,32.26611 -30.19052,26.49721 -0.65026,-0.6818 -1.62999,-1.1595 -1.95078,-2.0453 -0.34888,-0.9634 0.7451,-8.7332 0.74489,-8.7711 -0.0585,-10.7407 -3.39139,-21.09851 -7.53897,-30.87481 -1.64912,-4.0613 -3.36939,-8.0944 -4.94735,-12.1838 -5.99805,-15.5445 -2.94775,-8.5636 -8.42967,-24.0364 -3.7325,-10.535 -4.67638,-12.3725 -8.91372,-22.6635 -1.55978,-3.7882 -3.10896,-7.5807 -4.66344,-11.3711 -10.31147,-29.5629 1.89519,5.6094 -8.37166,-24.5418 -4.37853,-12.8587 -9.13767,-25.651 -12.89303,-38.713 -1.32365,-4.604 -2.38214,-9.2801 -3.5732,-13.9201 -1.03207,-4.6765 -1.84276,-9.4073 -3.0962,-14.0294 -1.29561,-4.7775 -3.06036,-9.4155 -4.5426,-14.1385 -1.49387,-4.7601 -2.85075,-9.563 -4.38553,-14.31 -4.5317,-14.01648 -9.54089,-27.88678 -14.45455,-41.77151 -0.0153,-0.037 -10.27792,-24.9299 -10.3983,-25.21718 -1.66463,-3.97249 -3.4197,-7.9069 -5.06385,-11.88791 -7.1952,-17.4219 -1.91037,-5.12394 -8.77014,-22.745 -1.56853,-4.02916 -3.25119,-8.01296 -4.87679,-12.01944 -2.15534,-4.00572 -4.31069,-8.01144 -6.46603,-12.01716 -2.11489,-3.83194 -4.26839,-7.64282 -6.34467,-11.49581 -6.65565,-12.35101 -11.72686,-24.1812 -23.01057,-33.18276 0,0 27.67142,-22.38749 27.67142,-22.38749 z"
       id="path3121"
       style="fill:#000000" />
    <path
       d="m 482.89781,590.33758 c -1.34718,2.04597 -2.79573,4.02868 -4.04154,6.13791 -2.51653,4.26062 -4.2912,8.49578 -6.46828,12.92711 -1.36535,2.77912 -2.78445,5.53151 -4.17668,8.29726 -1.79958,3.41825 -3.67868,6.7958 -5.39872,10.25476 -1.90489,3.83067 -3.64895,7.73923 -5.47343,11.60885 -7.29813,15.65311 -6.29333,13.93117 -14.74431,30.11471 -2.99753,5.74024 -5.91903,11.52523 -9.14512,17.1402 -3.50852,6.10655 -7.24876,12.0794 -11.04956,18.00844 -15.6486,23.40453 -8.15268,11.86668 -22.52798,34.5874 -4.87592,8.56204 -9.3976,16.04674 -13.56171,24.90169 -2.62163,5.57488 -5.3272,13.14729 -7.59103,18.87999 -11.18055,28.31249 3.67465,-9.98122 -8.78655,22.29479 -4.30825,12.6242 -5.37861,14.2829 -7.85027,27.4018 -0.36997,1.9637 -3.4546,24.6035 -3.7715,26.7748 -2.2267,15.2567 -1.79526,12.0718 -4.73162,27.4595 -1.03608,5.8419 -3.58803,20.7248 -4.97075,26.5874 -2.14006,9.0736 -5.77665,20.4895 -8.43736,29.3455 -5.64347,18.784 -3.70952,12.2256 -8.99665,31.027 -4.10345,15.6916 -3.56909,11.7496 -5.70276,26.31181 -0.59747,4.0777 -3.17485,11.9806 0.20827,16.4544 0.46254,0.6117 2.03611,0.7788 2.29983,0.059 0.40871,-1.1159 -0.71767,-2.2659 -1.07651,-3.3989 -61.76446,51.7099 -15.19917,11.8991 2.41427,0.5576 1.33614,-0.8603 1.0484,3.1293 1.3855,5.1516 0.11534,0.692 0.3547,1.3575 0.53205,2.0362 0,0 -30.15072,22.7941 -30.15072,22.7941 l 0,0 c -0.59161,-4.949 0.35872,1.0854 -1.1462,-3.6853 -0.0506,-0.1605 0.30637,0.3533 0.43879,0.2495 31.3365,-24.5691 49.13714,-40.78761 0.25036,1.8307 -0.85363,-0.8747 -2.32319,-1.4252 -2.5609,-2.624 -0.27468,-1.3853 0.83343,-2.6987 1.23715,-4.052 0.85077,-2.8518 1.84362,-5.6665 2.52629,-8.5632 0.94043,-3.9903 1.33971,-8.0983 2.33759,-12.0747 2.40065,-9.566 6.25767,-18.72861 8.48553,-28.34521 7.8266,-28.2702 15.62944,-56.597 20.70938,-85.5196 2.30963,-13.4759 4.36227,-26.9873 6.47353,-40.4956 0.72215,-4.6206 1.26904,-9.269 2.07706,-13.8753 2.20509,-12.5707 2.94207,-14.4227 6.09894,-26.5465 1.07759,-3.7688 2.00303,-7.5845 3.23276,-11.3065 1.46332,-4.4289 6.16645,-16.0596 8.211,-20.1685 7.02383,-14.11576 16.72111,-26.617 25.31227,-39.76294 4.02717,-6.07791 18.87565,-28.3591 22.65952,-34.58447 11.49293,-18.90863 20.79451,-39.11829 27.68601,-60.1429 8.43063,-22.54162 -0.15619,0.16701 7.62785,-19.76139 0.96653,-2.47447 1.81468,-4.99514 2.82332,-7.45274 2.40024,-5.84838 5.34606,-11.47678 7.49018,-17.43499 0,0 29.8427,-19.39898 29.8427,-19.39898 z"
       id="path3123"
       style="fill:#000000" />
  </g>
</svg>
